name Walk1.mot
datacolumns 19
datarows 12
range 1.65000000 1.66100000
endheader

                time	   L_ground_force_vx	   L_ground_force_vy	   L_ground_force_vz	   L_ground_force_px	   L_ground_force_py	   L_ground_force_pz	   R_ground_force_vx	   R_ground_force_vy	   R_ground_force_vz	   R_ground_force_px	   R_ground_force_py	   R_ground_force_pz	   L_ground_torque_x	   L_ground_torque_y	   L_ground_torque_z	   R_ground_torque_x	   R_ground_torque_y	   R_ground_torque_z	
          1.65000000	          0.03874052	          0.10942898	         -0.00566395	         -0.00007946	          0.00000000	         -0.00005558	        -24.08281926	        429.05073681	        -33.96709380	          0.57505944	          0.00000000	          0.06053013	          0.00000000	         -0.00049141	          0.00000000	          0.00000000	          1.68166289	          0.00000000	
          1.65100000	          0.03636950	          0.10291052	         -0.00545147	         -0.00007872	          0.00000000	         -0.00005254	        -23.90223150	        427.20202275	        -33.71729367	          0.57585507	          0.00000000	          0.06066519	          0.00000000	         -0.00048955	          0.00000000	          0.00000000	          1.64487350	          0.00000000	
          1.65200000	          0.03406264	          0.09655741	         -0.00523645	         -0.00007775	          0.00000000	         -0.00004956	        -23.72496899	        425.42037473	        -33.47091496	          0.57664483	          0.00000000	          0.06079767	          0.00000000	         -0.00048600	          0.00000000	          0.00000000	          1.60843503	          0.00000000	
          1.65300000	          0.03182320	          0.09037960	         -0.00501993	         -0.00007657	          0.00000000	         -0.00004665	        -23.55076296	        423.70623679	        -33.22813446	          0.57742841	          0.00000000	          0.06092755	          0.00000000	         -0.00048092	          0.00000000	          0.00000000	          1.57230266	          0.00000000	
          1.65400000	          0.02965392	          0.08438553	         -0.00480284	         -0.00007520	          0.00000000	         -0.00004381	        -23.37933664	        422.05998368	        -32.98912441	          0.57820552	          0.00000000	          0.06105480	          0.00000000	         -0.00047444	          0.00000000	          0.00000000	          1.53643083	          0.00000000	
          1.65500000	          0.02755702	          0.07858223	         -0.00458607	         -0.00007366	          0.00000000	         -0.00004104	        -23.21040507	        420.48192000	        -32.75405216	          0.57897587	          0.00000000	          0.06117939	          0.00000000	         -0.00046673	          0.00000000	          0.00000000	          1.50077313	          0.00000000	
          1.65600000	          0.02553428	          0.07297540	         -0.00437040	         -0.00007197	          0.00000000	         -0.00003835	        -23.04367551	        418.97227909	        -32.52307979	          0.57973918	          0.00000000	          0.06130131	          0.00000000	         -0.00045791	          0.00000000	          0.00000000	          1.46528225	          0.00000000	
          1.65700000	          0.02358704	          0.06756953	         -0.00415655	         -0.00007015	          0.00000000	         -0.00003575	        -22.87884842	        417.53122207	        -32.29636391	          0.58049518	          0.00000000	          0.06142055	          0.00000000	         -0.00044811	          0.00000000	          0.00000000	          1.42990979	          0.00000000	
          1.65800000	          0.02171622	          0.06236797	         -0.00394517	         -0.00006823	          0.00000000	         -0.00003324	        -22.71561888	        416.15883761	        -32.07405537	          0.58124359	          0.00000000	          0.06153707	          0.00000000	         -0.00043745	          0.00000000	          0.00000000	          1.39460634	          0.00000000	
          1.65900000	          0.01992241	          0.05737298	         -0.00373686	         -0.00006621	          0.00000000	         -0.00003081	        -22.55367843	        414.85514292	        -31.85629890	          0.58198416	          0.00000000	          0.06165087	          0.00000000	         -0.00042604	          0.00000000	          0.00000000	          1.35932154	          0.00000000	
          1.66000000	          0.01820584	          0.05258590	         -0.00353214	         -0.00006411	          0.00000000	         -0.00002847	        -22.39271679	        413.62008573	        -31.64323260	          0.58271661	          0.00000000	          0.06176194	          0.00000000	         -0.00041399	          0.00000000	          0.00000000	          1.32400433	          0.00000000	
          1.66100000	          0.01656642	          0.04800712	         -0.00333148	         -0.00006195	          0.00000000	         -0.00002622	        -22.23242345	        412.45354690	        -31.43498718	          0.58344070	          0.00000000	          0.06187025	          0.00000000	         -0.00040141	          0.00000000	          0.00000000	          1.28860328	          0.00000000	
